<svg id="visual" viewBox="0 0 900 600" width="900" height="600" xmlns="http://www.w3.org/2000/svg" xmlns:xlink="http://www.w3.org/1999/xlink" version="1.1"><path d="M0 67L13.7 68C27.3 69 54.7 71 82 69C109.3 67 136.7 61 163.8 63C191 65 218 75 245.2 82C272.3 89 299.7 93 327 92C354.3 91 381.7 85 409 78C436.3 71 463.7 63 491 60C518.3 57 545.7 59 573 57C600.3 55 627.7 49 654.8 56C682 63 709 83 736.2 86C763.3 89 790.7 75 818 66C845.3 57 872.7 53 886.3 51L900 49L900 0L886.3 0C872.7 0 845.3 0 818 0C790.7 0 763.3 0 736.2 0C709 0 682 0 654.8 0C627.7 0 600.3 0 573 0C545.7 0 518.3 0 491 0C463.7 0 436.3 0 409 0C381.7 0 354.3 0 327 0C299.7 0 272.3 0 245.2 0C218 0 191 0 163.8 0C136.7 0 109.3 0 82 0C54.7 0 27.3 0 13.7 0L0 0Z" fill="#04010a"></path><path d="M0 127L13.7 139C27.3 151 54.7 175 82 184C109.3 193 136.7 187 163.8 188C191 189 218 197 245.2 192C272.3 187 299.7 169 327 166C354.3 163 381.7 175 409 171C436.3 167 463.7 147 491 133C518.3 119 545.7 111 573 108C600.3 105 627.7 107 654.8 115C682 123 709 137 736.2 148C763.3 159 790.7 167 818 171C845.3 175 872.7 175 886.3 175L900 175L900 47L886.3 49C872.7 51 845.3 55 818 64C790.7 73 763.3 87 736.2 84C709 81 682 61 654.8 54C627.7 47 600.3 53 573 55C545.7 57 518.3 55 491 58C463.7 61 436.3 69 409 76C381.7 83 354.3 89 327 90C299.7 91 272.3 87 245.2 80C218 73 191 63 163.8 61C136.7 59 109.3 65 82 67C54.7 69 27.3 67 13.7 66L0 65Z" fill="#05010c"></path><path d="M0 235L13.7 245C27.3 255 54.7 275 82 279C109.3 283 136.7 271 163.8 282C191 293 218 327 245.2 356C272.3 385 299.7 409 327 419C354.3 429 381.7 425 409 415C436.3 405 463.7 389 491 373C518.3 357 545.7 341 573 334C600.3 327 627.7 329 654.8 321C682 313 709 295 736.2 286C763.3 277 790.7 277 818 282C845.3 287 872.7 297 886.3 302L900 307L900 173L886.3 173C872.7 173 845.3 173 818 169C790.7 165 763.3 157 736.2 146C709 135 682 121 654.8 113C627.7 105 600.3 103 573 106C545.7 109 518.3 117 491 131C463.7 145 436.3 165 409 169C381.7 173 354.3 161 327 164C299.7 167 272.3 185 245.2 190C218 195 191 187 163.8 186C136.7 185 109.3 191 82 182C54.7 173 27.3 149 13.7 137L0 125Z" fill="#05010d"></path><path d="M0 367L13.7 378C27.3 389 54.7 411 82 418C109.3 425 136.7 417 163.8 423C191 429 218 449 245.2 464C272.3 479 299.7 489 327 497C354.3 505 381.7 511 409 509C436.3 507 463.7 497 491 491C518.3 485 545.7 483 573 475C600.3 467 627.7 453 654.8 438C682 423 709 407 736.2 391C763.3 375 790.7 359 818 354C845.3 349 872.7 355 886.3 358L900 361L900 305L886.3 300C872.7 295 845.3 285 818 280C790.7 275 763.3 275 736.2 284C709 293 682 311 654.8 319C627.7 327 600.3 325 573 332C545.7 339 518.3 355 491 371C463.7 387 436.3 403 409 413C381.7 423 354.3 427 327 417C299.7 407 272.3 383 245.2 354C218 325 191 291 163.8 280C136.7 269 109.3 281 82 277C54.7 273 27.3 253 13.7 243L0 233Z" fill="#160e2e"></path><path d="M0 601L13.7 601C27.3 601 54.7 601 82 601C109.3 601 136.7 601 163.8 601C191 601 218 601 245.2 601C272.3 601 299.7 601 327 601C354.3 601 381.7 601 409 601C436.3 601 463.7 601 491 601C518.3 601 545.7 601 573 601C600.3 601 627.7 601 654.8 601C682 601 709 601 736.2 601C763.3 601 790.7 601 818 601C845.3 601 872.7 601 886.3 601L900 601L900 359L886.3 356C872.7 353 845.3 347 818 352C790.7 357 763.3 373 736.2 389C709 405 682 421 654.8 436C627.7 451 600.3 465 573 473C545.7 481 518.3 483 491 489C463.7 495 436.3 505 409 507C381.7 509 354.3 503 327 495C299.7 487 272.3 477 245.2 462C218 447 191 427 163.8 421C136.7 415 109.3 423 82 416C54.7 409 27.3 387 13.7 376L0 365Z" fill="#20144f"></path></svg>